<svg width="29" height="34" viewBox="0 0 29 34" fill="none" xmlns="http://www.w3.org/2000/svg">
<g clip-path="url(#clip0)">
<path d="M25.1027 2.98083H3.02188C2.22331 2.98083 1.45745 3.30178 0.892771 3.87308C0.328096 4.44437 0.0108643 5.21921 0.0108643 6.02714L0.0108643 28.3667C0.0108643 29.1746 0.328096 29.9495 0.892771 30.5208C1.45745 31.0921 2.22331 31.413 3.02188 31.413H11.6315V21.7467H7.67955V17.1969H11.6315V13.7292C11.6315 9.78488 13.9525 7.60614 17.5074 7.60614C19.2099 7.60614 20.9901 7.91331 20.9901 7.91331V11.7847H19.0286C17.0959 11.7847 16.4931 12.9981 16.4931 14.2426V17.1969H20.8076L20.1176 21.7467H16.4931V31.413H25.1027C25.9013 31.413 26.6671 31.0921 27.2318 30.5208C27.7965 29.9495 28.1137 29.1746 28.1137 28.3667V6.02714C28.1137 5.21921 27.7965 4.44437 27.2318 3.87308C26.6671 3.30178 25.9013 2.98083 25.1027 2.98083Z" fill="white"/>
</g>
<defs>
<clipPath id="clip0">
<rect width="28.1028" height="32.4939" fill="white" transform="translate(0.0108643 0.949951)"/>
</clipPath>
</defs>
</svg>
