<svg width="33" height="34" viewBox="0 0 33 34" fill="none" xmlns="http://www.w3.org/2000/svg">
<path d="M10.8684 26.1708C10.8684 26.2977 10.7177 26.3993 10.5278 26.3993C10.3116 26.4183 10.1609 26.3168 10.1609 26.1708C10.1609 26.0439 10.3116 25.9423 10.5016 25.9423C10.6981 25.9233 10.8684 26.0248 10.8684 26.1708ZM8.83101 25.8852C8.78515 26.0122 8.91617 26.1581 9.11271 26.1962C9.28304 26.2597 9.47958 26.1962 9.51888 26.0693C9.55819 25.9423 9.43372 25.7964 9.23718 25.7393C9.06685 25.6948 8.87687 25.7583 8.83101 25.8852ZM11.7266 25.7773C11.5366 25.8218 11.4056 25.9423 11.4253 26.0883C11.4449 26.2152 11.6153 26.2977 11.8118 26.2533C12.0018 26.2089 12.1328 26.0883 12.1132 25.9614C12.0935 25.8408 11.9166 25.7583 11.7266 25.7773ZM16.0373 1.45767C6.95082 1.45767 0 8.1405 0 16.9431C0 23.9813 4.57273 30.0041 11.1043 32.1238C11.9428 32.2698 12.2376 31.7684 12.2376 31.3559C12.2376 30.9624 12.218 28.7919 12.218 27.4591C12.218 27.4591 7.63214 28.4111 6.66911 25.5679C6.66911 25.5679 5.92228 23.7211 4.84788 23.2451C4.84788 23.2451 3.34766 22.2487 4.9527 22.2677C4.9527 22.2677 6.58395 22.3947 7.48146 23.9051C8.91617 26.3549 11.3205 25.6504 12.2573 25.2315C12.408 24.2161 12.8338 23.5116 13.3055 23.0928C9.64335 22.6993 5.94848 22.1852 5.94848 16.0799C5.94848 14.3347 6.44637 13.4588 7.49456 12.3419C7.32423 11.9293 6.76738 10.2285 7.66489 8.03261C9.03409 7.62009 12.1852 9.74616 12.1852 9.74616C13.4955 9.39076 14.904 9.20671 16.2994 9.20671C17.6948 9.20671 19.1033 9.39076 20.4135 9.74616C20.4135 9.74616 23.5646 7.61375 24.9338 8.03261C25.8314 10.2348 25.2745 11.9293 25.1042 12.3419C26.1524 13.4652 26.7944 14.341 26.7944 16.0799C26.7944 22.2043 22.9357 22.693 19.2736 23.0928C19.8763 23.5941 20.3873 24.5461 20.3873 26.0375C20.3873 28.1763 20.3677 30.8228 20.3677 31.3432C20.3677 31.7557 20.669 32.2571 21.501 32.1111C28.0522 30.0041 32.4939 23.9813 32.4939 16.9431C32.4939 8.1405 25.1238 1.45767 16.0373 1.45767ZM6.36776 23.3466C6.28259 23.4101 6.30225 23.5561 6.41362 23.6767C6.51844 23.7782 6.66911 23.8226 6.75428 23.7401C6.83944 23.6767 6.81979 23.5307 6.70842 23.4101C6.6036 23.3086 6.45292 23.2641 6.36776 23.3466ZM5.66023 22.8326C5.61437 22.9151 5.67988 23.0166 5.81091 23.0801C5.91573 23.1436 6.04675 23.1245 6.09261 23.0357C6.13847 22.9532 6.07295 22.8516 5.94193 22.7881C5.81091 22.7501 5.70609 22.7691 5.66023 22.8326ZM7.78282 25.0919C7.678 25.1744 7.7173 25.3648 7.86798 25.4854C8.01866 25.6314 8.20864 25.6504 8.29381 25.5489C8.37897 25.4664 8.33967 25.276 8.20864 25.1554C8.06452 25.0094 7.86798 24.9904 7.78282 25.0919ZM7.03598 24.159C6.93116 24.2225 6.93116 24.3875 7.03598 24.5334C7.1408 24.6794 7.31768 24.7429 7.40285 24.6794C7.50767 24.5969 7.50767 24.4319 7.40285 24.2859C7.31113 24.1399 7.1408 24.0765 7.03598 24.159Z" fill="white"/>
</svg>
