<svg width="1440" height="935" viewBox="0 0 1440 935" fill="none" xmlns="http://www.w3.org/2000/svg">
<rect x="-231" y="-8" width="2292" height="943" fill="url(#paint0_linear)"/>
<mask id="mask0" mask-type="alpha" maskUnits="userSpaceOnUse" x="-672" y="-232" width="2784" height="1856">
<path d="M-672 1159.37C-672 1415.72 -464.05 1623.16 -208.21 1623.16C47.6292 1623.16 256.031 1415.72 256.031 1159.37C256.031 811.301 372.204 695.579 719.821 695.579C1067.44 695.579 1183.61 811.753 1183.61 1159.37C1183.61 1415.72 1391.56 1623.16 1647.4 1623.16C1903.24 1623.16 2111.71 1415.72 2111.71 1159.37C2111.71 903.013 1903.76 695.579 1647.92 695.579C1299.85 695.579 1184.13 579.406 1184.13 231.79C1184.13 -24.5661 976.177 -232 720.337 -232C464.498 -232 256.548 -24.0498 256.548 231.79C256.548 579.858 140.374 695.579 -207.242 695.579C-464.501 695.579 -672 903.53 -672 1159.37Z" fill="#0180FF"/>
</mask>
<g mask="url(#mask0)">
<rect x="-230.793" y="-8.4527" width="2290.44" height="973.436" fill="#000034" fill-opacity="0.2"/>
</g>
<defs>
<linearGradient id="paint0_linear" x1="-164.992" y1="37.4137" x2="1883.36" y2="1142.52" gradientUnits="userSpaceOnUse">
<stop stop-color="#3A3897"/>
<stop offset="1" stop-color="#4A90E2"/>
</linearGradient>
</defs>
</svg>
