<svg width="29" height="34" viewBox="0 0 29 34" fill="none" xmlns="http://www.w3.org/2000/svg">
<g clip-path="url(#clip0)">
<path d="M14.1334 9.89848C10.1438 9.89848 6.9258 13.1542 6.9258 17.1906C6.9258 21.2269 10.1438 24.4827 14.1334 24.4827C18.123 24.4827 21.341 21.2269 21.341 17.1906C21.341 13.1542 18.123 9.89848 14.1334 9.89848ZM14.1334 21.9314C11.5552 21.9314 9.44753 19.8053 9.44753 17.1906C9.44753 14.5758 11.549 12.4498 14.1334 12.4498C16.7179 12.4498 18.8193 14.5758 18.8193 17.1906C18.8193 19.8053 16.7116 21.9314 14.1334 21.9314ZM23.317 9.6002C23.317 10.5458 22.5643 11.301 21.6359 11.301C20.7012 11.301 19.9547 10.5395 19.9547 9.6002C19.9547 8.66092 20.7075 7.89934 21.6359 7.89934C22.5643 7.89934 23.317 8.66092 23.317 9.6002ZM28.0907 11.3264C27.9841 9.04805 27.4697 7.02988 25.8199 5.3671C24.1764 3.70433 22.1816 3.18392 19.9296 3.06968C17.6086 2.93641 10.6519 2.93641 8.33094 3.06968C6.08522 3.17757 4.09042 3.69798 2.44064 5.36076C0.790851 7.02353 0.282742 9.04171 0.169829 11.3201C0.0380967 13.6683 0.0380967 20.7065 0.169829 23.0547C0.276469 25.3331 0.790851 27.3513 2.44064 29.014C4.09042 30.6768 6.07895 31.1972 8.33094 31.3115C10.6519 31.4447 17.6086 31.4447 19.9296 31.3115C22.1816 31.2036 24.1764 30.6832 25.8199 29.014C27.4634 27.3513 27.9778 25.3331 28.0907 23.0547C28.2225 20.7065 28.2225 13.6746 28.0907 11.3264ZM25.0923 25.5742C24.603 26.8182 23.6558 27.7765 22.42 28.2778C20.5695 29.0204 16.1784 28.849 14.1334 28.849C12.0884 28.849 7.6911 29.014 5.84685 28.2778C4.61735 27.7828 3.67014 26.8245 3.17457 25.5742C2.44064 23.702 2.61001 19.2595 2.61001 17.1906C2.61001 15.1216 2.44691 10.6727 3.17457 8.80689C3.66386 7.56298 4.61108 6.60466 5.84685 6.10329C7.69737 5.36076 12.0884 5.53211 14.1334 5.53211C16.1784 5.53211 20.5757 5.3671 22.42 6.10329C23.6495 6.59832 24.5967 7.55663 25.0923 8.80689C25.8262 10.6791 25.6568 15.1216 25.6568 17.1906C25.6568 19.2595 25.8262 23.7084 25.0923 25.5742Z" fill="white"/>
</g>
<defs>
<clipPath id="clip0">
<rect width="28.1028" height="32.4939" fill="white" transform="translate(0.0757446 0.949951)"/>
</clipPath>
</defs>
</svg>
