<svg width="29" height="34" viewBox="0 0 29 34" fill="none" xmlns="http://www.w3.org/2000/svg">
<g clip-path="url(#clip0)">
<path d="M7.11462 29.3822H1.2883V10.3999H7.11462V29.3822ZM4.19832 7.81058C2.33525 7.81058 0.824097 6.24935 0.824097 4.36445C0.824097 3.45906 1.17959 2.59076 1.81238 1.95055C2.44517 1.31035 3.30342 0.950684 4.19832 0.950684C5.09322 0.950684 5.95147 1.31035 6.58426 1.95055C7.21705 2.59076 7.57254 3.45906 7.57254 4.36445C7.57254 6.24935 6.06076 7.81058 4.19832 7.81058ZM28.9207 29.3822H23.1069V20.1418C23.1069 17.9395 23.063 15.1154 20.0777 15.1154C17.0485 15.1154 16.5843 17.508 16.5843 19.9831V29.3822H10.7642V10.3999H16.3522V12.9893H16.4337C17.2116 11.4979 19.1116 9.92395 21.9464 9.92395C27.843 9.92395 28.9269 13.8524 28.9269 18.955V29.3822H28.9207Z" fill="white"/>
</g>
<defs>
<clipPath id="clip0">
<rect width="28.1028" height="32.4939" fill="white" transform="translate(0.824097 0.949951)"/>
</clipPath>
</defs>
</svg>
