<svg width="816" height="142" viewBox="0 0 816 142" fill="none" xmlns="http://www.w3.org/2000/svg">
<g clip-path="url(#clip0_1099_2951)">
<path d="M108.939 142H97.6313L54.7446 76.6713L11.2165 142H0L48.8065 67.9847L4.34365 0H15.8717L54.9279 59.8007L94.8272 0H105.64L60.7011 67.7873L108.939 142Z" fill="#209CE9"/>
<path d="M10.7217 63.6602H98.5844V71.7365H10.7217V63.6602ZM10.7217 87.8891H98.6027V95.9655H10.7217V87.8891Z" fill="#209CE9"/>
</g>
<path d="M164.214 40.2012L164.214 73.7022L164.214 107.203" stroke="white" stroke-opacity="0.33"/>
<path d="M343.895 142H332.722L238.778 16.2106H237.91C238.778 31.4986 239.212 43.0305 239.212 50.8063V142H228.581V0H239.646L333.481 128.103H334.132C333.481 116.242 333.156 104.973 333.156 94.2981V0H343.895L343.895 142Z" fill="white"/>
<path d="M465.284 94.1004H400.847L378.717 142H366.459L430.245 0H437.296L499.781 142H487.306L465.284 94.1004ZM404.861 85.0067H461.596L440.008 32.9154C438.2 28.8298 436.031 23.1627 433.5 15.914C431.547 22.2401 429.414 27.9731 427.099 33.1131L404.861 85.0067Z" fill="white"/>
<path d="M637.659 142H625.089L532.542 16.2106H531.674C532.542 31.4986 532.976 43.0305 532.976 50.8063V142H522.345V0H533.41L627.245 128.103H627.896C627.245 116.242 626.919 104.973 626.919 94.2981V0H637.659V142Z" fill="white"/>
<path d="M816 67.5695C816 90.5015 809.708 108.656 797.125 122.033C784.541 135.344 767.184 142 745.054 142C722.997 142 705.676 135.344 693.092 122.033C680.509 108.656 674.217 90.4356 674.217 67.3718C674.217 44.3739 680.545 33.0472 693.201 19.8678C705.929 6.62261 723.286 0 745.271 0C767.401 0 784.722 6.65556 797.233 19.9667C809.744 33.2119 816 44.5716 816 67.5695ZM686.258 67.5695C686.258 88.2611 691.32 104.274 701.445 115.608C711.57 126.876 726.106 132.511 745.054 132.511C764.147 132.511 778.719 126.909 788.772 115.707C798.896 104.505 803.959 88.4587 803.959 67.5695C803.959 46.7462 798.896 37.5611 788.772 26.4904C778.719 15.3539 764.219 9.78565 745.271 9.78565C726.396 9.78565 711.823 15.3869 701.554 26.5893C691.357 37.7917 686.258 46.9439 686.258 67.5695Z" fill="white"/>
<defs>
<clipPath id="clip0_1099_2951">
<rect width="108.939" height="142" fill="white"/>
</clipPath>
</defs>
</svg>
