<svg width="324" height="45" viewBox="0 0 324 45" fill="none" xmlns="http://www.w3.org/2000/svg">
<path d="M164.558 1.21574C164.043 1.21574 163.614 1.38803 163.292 1.75414C162.97 2.12024 162.819 2.57249 162.819 3.13242V37.5249L136.695 2.12025C136.287 1.51725 135.772 1.21574 135.149 1.21574C134.548 1.21574 134.076 1.38803 133.732 1.75414C133.389 2.12024 133.217 2.57249 133.217 3.13242V42.1982C133.217 42.8012 133.346 43.275 133.625 43.6195C133.904 43.9641 134.333 44.1364 134.934 44.1364C135.45 44.1364 135.879 43.9641 136.201 43.598C136.523 43.2319 136.673 42.7796 136.673 42.2197V7.7626L162.862 43.2319C163.335 43.8349 163.871 44.1364 164.472 44.1364C165.03 44.1364 165.46 43.9641 165.782 43.598C166.104 43.2319 166.254 42.7796 166.254 42.2197V3.15396C166.254 2.55096 166.104 2.07717 165.803 1.75414C165.546 1.38803 165.116 1.21574 164.558 1.21574ZM301.836 0.914246C289.944 0.914246 280.284 10.6053 280.284 22.5361C280.284 34.4669 289.944 44.1579 301.836 44.1579C313.729 44.1579 323.389 34.4669 323.389 22.5361C323.389 10.6268 313.707 0.914246 301.836 0.914246ZM301.836 40.6261C291.897 40.6261 283.805 32.5071 283.805 22.5361C283.805 12.5651 291.897 4.4461 301.836 4.4461C311.775 4.4461 319.868 12.5651 319.868 22.5361C319.868 32.5071 311.775 40.6261 301.836 40.6261ZM202.489 2.48635C202.339 2.07717 202.06 1.77567 201.674 1.51724C201.287 1.28035 200.879 1.15114 200.45 1.15114C199.484 1.15114 198.84 1.58185 198.475 2.46482L181.001 41.8321C180.916 41.9828 180.873 42.2197 180.873 42.4997C180.873 42.9735 181.044 43.3611 181.388 43.6626C181.731 43.9641 182.139 44.1149 182.611 44.1149C183.363 44.1149 183.921 43.7272 184.286 42.9735L188.901 32.5287H212.106L216.657 42.9735C216.808 43.3396 217.044 43.6195 217.344 43.8134C217.645 44.0072 217.945 44.1149 218.267 44.1149C218.74 44.1149 219.169 43.9641 219.534 43.6626C219.899 43.3611 220.071 42.995 220.071 42.5643C220.071 42.3274 220.006 42.0905 219.899 41.8536L202.489 2.48635ZM190.275 29.2983L200.493 6.08281L210.668 29.2983H190.275ZM265.944 1.21574C265.429 1.21574 265 1.38803 264.699 1.75414C264.377 2.12024 264.227 2.57249 264.227 3.13242V37.5249L238.081 2.12025C237.673 1.51725 237.158 1.21574 236.535 1.21574C235.934 1.21574 235.462 1.38803 235.119 1.75414C234.775 2.12024 234.603 2.57249 234.603 3.13242V42.1982C234.603 42.8012 234.732 43.275 235.011 43.6195C235.29 43.9641 235.72 44.1364 236.321 44.1364C236.836 44.1364 237.265 43.9641 237.587 43.598C237.909 43.2319 238.059 42.7796 238.059 42.2197V7.7626L264.249 43.2319C264.721 43.8349 265.257 44.1364 265.859 44.1364C266.417 44.1364 266.846 43.9641 267.168 43.598C267.49 43.2319 267.64 42.7796 267.64 42.2197V3.15396C267.64 2.55096 267.49 2.07717 267.189 1.75414C266.932 1.38803 266.503 1.21574 265.944 1.21574Z" fill="white"/>
<path d="M57.9769 22.5361C57.9769 26.4986 54.7784 29.6859 50.8501 29.6859C46.9217 29.6859 43.7232 26.4771 43.7232 22.5361C43.7232 17.1737 41.9415 15.3862 36.5963 15.3862C31.2511 15.3862 29.4694 17.1737 29.4694 22.5361C29.4694 26.4986 26.2709 29.6859 22.3425 29.6859C18.4142 29.6859 15.2157 26.4771 15.2157 22.5361C15.2157 18.5735 18.4142 15.3862 22.3425 15.3862C27.6877 15.3862 29.4694 13.5988 29.4694 8.23637C29.4694 4.2738 32.6679 1.08652 36.5963 1.08652C40.5247 1.08652 43.7232 4.29534 43.7232 8.23637C43.7232 13.5988 45.5049 15.3862 50.8501 15.3862C54.7999 15.3862 57.9769 18.595 57.9769 22.5361Z" fill="white"/>
<path d="M8.04586 44.0071C11.9819 44.0071 15.1727 40.8061 15.1727 36.8573C15.1727 32.9086 11.9819 29.7075 8.04586 29.7075C4.10979 29.7075 0.918976 32.9086 0.918976 36.8573C0.918976 40.8061 4.10979 44.0071 8.04586 44.0071Z" fill="white"/>
<path d="M100.803 8.23637C100.803 12.1989 97.6041 15.3862 93.6757 15.3862C88.3306 15.3862 86.5489 17.1737 86.5489 22.5361C86.5489 26.4986 83.3504 29.6859 79.422 29.6859C74.0768 29.6859 72.2951 31.4734 72.2951 36.8358C72.2951 40.7983 69.0966 43.9856 65.1682 43.9856C61.2399 43.9856 58.0414 40.7768 58.0414 36.8358C58.0414 32.8732 61.2399 29.6859 65.1682 29.6859C70.5134 29.6859 72.2951 27.8985 72.2951 22.5361C72.2951 18.5735 75.4936 15.3862 79.422 15.3862C84.7672 15.3862 86.5489 13.5988 86.5489 8.23637C86.5489 4.2738 89.7474 1.08652 93.6757 1.08652C97.6041 1.08652 100.803 4.2738 100.803 8.23637Z" fill="white"/>
</svg>
