<svg width="32" height="34" viewBox="0 0 32 34" fill="none" xmlns="http://www.w3.org/2000/svg">
<g clip-path="url(#clip0)">
<path d="M12.5981 20.3384C11.746 20.3384 11.0605 19.634 11.0605 18.7772C11.0605 17.9014 11.746 17.1969 12.5981 17.1969C13.4379 17.1969 14.1171 17.9014 14.1171 18.7772C14.1171 19.6403 13.4317 20.3384 12.5981 20.3384ZM31.2773 17.1969C31.2773 25.8916 24.4231 32.9361 15.9634 32.9361C7.50378 32.9361 0.649597 25.8916 0.649597 17.1969C0.649597 8.50225 7.50378 1.45767 15.9634 1.45767C24.4231 1.45767 31.2773 8.50225 31.2773 17.1969ZM23.1079 14.5822C22.5274 14.5822 22.0149 14.8297 21.6382 15.2168C20.255 14.2331 18.3902 13.5985 16.3216 13.5287L17.396 8.55937L20.817 9.35268C20.817 10.2158 21.5024 10.9139 22.336 10.9139C23.1881 10.9139 23.8735 10.1968 23.8735 9.33364C23.8735 8.47052 23.1881 7.75337 22.336 7.75337C21.737 7.75337 21.2245 8.12146 20.9713 8.62918L17.1923 7.76606C17.007 7.71529 16.8156 7.85491 16.7662 8.04531L15.5868 13.5287C13.5367 13.6175 11.6904 14.2458 10.3072 15.2295C9.93053 14.8233 9.39949 14.5822 8.81904 14.5822C6.66399 14.5822 5.96005 17.5587 7.92985 18.5677C7.86193 18.8851 7.82488 19.2151 7.82488 19.5515C7.82488 22.8897 11.4804 25.5933 15.9758 25.5933C20.4897 25.5933 24.1452 22.8897 24.1452 19.5515C24.1452 19.2151 24.1082 18.866 24.0279 18.5487C25.9607 17.5333 25.2506 14.5822 23.1079 14.5822ZM18.8533 21.9568C17.7295 23.1118 14.1542 23.0928 13.0736 21.9568C12.9377 21.8171 12.6969 21.8171 12.5611 21.9568C12.4067 22.1154 12.4067 22.3629 12.5611 22.5026C13.9689 23.9496 17.9518 23.9496 19.3658 22.5026C19.5202 22.3629 19.5202 22.1154 19.3658 21.9568C19.23 21.8171 18.9892 21.8171 18.8533 21.9568ZM19.3288 17.1969C18.489 17.1969 17.8098 17.9014 17.8098 18.7772C17.8098 19.6403 18.4952 20.3384 19.3288 20.3384C20.1809 20.3384 20.8664 19.634 20.8664 18.7772C20.8664 17.9014 20.1871 17.1969 19.3288 17.1969Z" fill="white"/>
</g>
<defs>
<clipPath id="clip0">
<rect width="31.6157" height="32.4939" fill="white" transform="translate(0.155609 0.949951)"/>
</clipPath>
</defs>
</svg>
