<svg width="31" height="34" viewBox="0 0 31 34" fill="none" xmlns="http://www.w3.org/2000/svg">
<g clip-path="url(#clip0)">
<path d="M15.6313 1.45767C7.14126 1.45767 0.262512 8.50225 0.262512 17.1969C0.262512 25.8916 7.14126 32.9361 15.6313 32.9361C24.1212 32.9361 31 25.8916 31 17.1969C31 8.50225 24.1212 1.45767 15.6313 1.45767ZM23.1793 12.2403L20.6571 24.4128C20.4712 25.276 19.9692 25.4854 19.2689 25.0792L15.4267 22.1789L13.5738 24.0067C13.3693 24.2161 13.1958 24.3938 12.7992 24.3938L13.0719 20.3892L20.1923 13.8016C20.5022 13.5223 20.1241 13.3636 19.7151 13.6429L10.9153 19.3166L7.12267 18.1045C6.29846 17.8379 6.27987 17.2604 7.29619 16.8542L22.1134 11.0028C22.8013 10.7489 23.4024 11.1741 23.1793 12.2403Z" fill="white"/>
</g>
<defs>
<clipPath id="clip0">
<rect width="30.7375" height="32.4939" fill="white" transform="translate(0.262512 0.949951)"/>
</clipPath>
</defs>
</svg>
