<svg width="34" height="33" viewBox="0 0 34 33" fill="none" xmlns="http://www.w3.org/2000/svg">
<g clip-path="url(#clip0)">
<path d="M29.7316 10.3183C29.7522 10.5991 29.7522 10.88 29.7522 11.1609C29.7522 19.7268 23.0514 29.5967 10.8043 29.5967C7.03123 29.5967 3.5262 28.5334 0.57782 26.6879C1.11391 26.748 1.6293 26.7681 2.18601 26.7681C5.29927 26.7681 8.16521 25.745 10.4538 23.9998C7.52606 23.9396 5.07252 22.0739 4.22717 19.5061C4.63956 19.5663 5.05189 19.6064 5.48491 19.6064C6.08281 19.6064 6.68077 19.5261 7.23742 19.3858C4.18598 18.7839 1.89731 16.176 1.89731 13.0265V12.9463C2.78385 13.4278 3.81484 13.7287 4.90751 13.7687C3.11374 12.6052 1.93857 10.6192 1.93857 8.3724C1.93857 7.16878 2.26839 6.06545 2.84573 5.10253C6.124 9.03442 11.0517 11.6021 16.5773 11.883C16.4742 11.4016 16.4123 10.9001 16.4123 10.3986C16.4123 6.82774 19.3813 3.91898 23.0719 3.91898C24.9894 3.91898 26.7213 4.70134 27.9378 5.96517C29.4428 5.68433 30.8861 5.14266 32.1644 4.40044C31.6695 5.90502 30.6181 7.16885 29.2367 7.97122C30.5769 7.83086 31.8758 7.46969 33.0716 6.96822C32.1646 8.25205 31.0305 9.39547 29.7316 10.3183Z" fill="white"/>
</g>
<defs>
<clipPath id="clip0">
<rect width="32.4939" height="31.6157" fill="white" transform="translate(0.57782 0.949951)"/>
</clipPath>
</defs>
</svg>
