<svg width="37" height="34" viewBox="0 0 37 34" fill="none" xmlns="http://www.w3.org/2000/svg">
<path d="M35.0933 8.82484C34.7007 7.3239 33.5438 6.1418 32.075 5.74064C29.4126 5.01169 18.7368 5.01169 18.7368 5.01169C18.7368 5.01169 8.06104 5.01169 5.3986 5.74064C3.92976 6.14187 2.77292 7.3239 2.38028 8.82484C1.6669 11.5454 1.6669 17.2215 1.6669 17.2215C1.6669 17.2215 1.6669 22.8977 2.38028 25.6182C2.77292 27.1192 3.92976 28.252 5.3986 28.6532C8.06104 29.3821 18.7368 29.3821 18.7368 29.3821C18.7368 29.3821 29.4126 29.3821 32.075 28.6532C33.5438 28.252 34.7007 27.1192 35.0933 25.6182C35.8067 22.8977 35.8067 17.2215 35.8067 17.2215C35.8067 17.2215 35.8067 11.5454 35.0933 8.82484ZM15.2452 22.3751V12.068L24.1681 17.2217L15.2452 22.3751Z" fill="white"/>
</svg>
